<svg xmlns="http://www.w3.org/2000/svg" viewBox="0 0 1200 675" role="img" aria-labelledby="title desc">
  <title id="title">Android 返回手势调试插画</title>
  <desc id="desc">原创二次元风格开发者与层叠手机界面插画</desc>
  <defs>
    <linearGradient id="bg" x1="0" y1="0" x2="1" y2="1"><stop stop-color="#07162f"/><stop offset=".55" stop-color="#25396e"/><stop offset="1" stop-color="#8a68a5"/></linearGradient>
    <radialGradient id="halo"><stop stop-color="#9eb4ff" stop-opacity=".7"/><stop offset="1" stop-color="#687cff" stop-opacity="0"/></radialGradient>
    <linearGradient id="screen" x1="0" y1="0" x2="0" y2="1"><stop stop-color="#dce8ff" stop-opacity=".82"/><stop offset="1" stop-color="#89a2dc" stop-opacity=".12"/></linearGradient>
    <filter id="glow"><feGaussianBlur stdDeviation="8"/></filter>
    <pattern id="grid" width="36" height="36" patternUnits="userSpaceOnUse"><path d="M36 0H0V36" fill="none" stroke="#c5d4ff" stroke-opacity=".07"/></pattern>
  </defs>
  <rect width="1200" height="675" fill="url(#bg)"/><rect width="1200" height="675" fill="url(#grid)"/>
  <circle cx="875" cy="255" r="280" fill="url(#halo)"/>
  <g fill="none" stroke="#c9d7ff" stroke-width="4" opacity=".38">
    <rect x="720" y="92" width="270" height="470" rx="42" transform="rotate(12 855 327)"/>
    <rect x="650" y="115" width="270" height="470" rx="42" transform="rotate(4 785 350)"/>
    <rect x="582" y="126" width="270" height="470" rx="42"/>
  </g>
  <rect x="604" y="150" width="226" height="416" rx="30" fill="url(#screen)" stroke="#edf3ff" stroke-opacity=".55"/>
  <path d="M781 242c-66-72-171-32-174 57-2 67 54 106 112 86" fill="none" stroke="#d5b3ff" stroke-width="18" stroke-linecap="round"/>
  <path d="m696 355 39 34-47 22" fill="none" stroke="#d5b3ff" stroke-width="18" stroke-linecap="round" stroke-linejoin="round"/>
  <g transform="translate(120 88)">
    <path d="M168 155c8-92 134-128 214-62 46 38 59 112 24 165-26 39-14 79 10 121H126c32-46 48-91 42-224Z" fill="#182549"/>
    <ellipse cx="289" cy="207" rx="103" ry="116" fill="#f0c9c6"/>
    <path d="M177 177c24-108 164-129 236-37-17-4-29-3-45 3 20 15 28 32 33 54-48-34-95-48-147-34-32 9-53 30-74 55-9-14-10-27-3-41Z" fill="#a7b9f1"/>
    <path d="M205 164c-9 51-5 92 14 122M260 142c-1 39 11 70 34 94M331 139c18 29 30 56 35 91" fill="none" stroke="#d8e2ff" stroke-width="15" stroke-linecap="round"/>
    <path d="M225 214c19-12 37-12 55 0M319 211c17-10 33-9 49 2" fill="none" stroke="#27345f" stroke-width="8" stroke-linecap="round"/>
    <ellipse cx="255" cy="221" rx="9" ry="13" fill="#667de8"/><ellipse cx="343" cy="219" rx="9" ry="13" fill="#667de8"/>
    <path d="M278 270c15 10 31 10 47-1" fill="none" stroke="#b46f82" stroke-width="5" stroke-linecap="round"/>
    <path d="M105 548c22-153 98-221 183-221 91 0 170 66 194 221" fill="#101c3b"/>
    <path d="M210 341c35 40 104 40 144-2l25 60-91 70-100-70Z" fill="#6178d5"/>
    <path d="M124 541c97-47 213-49 341-4" fill="none" stroke="#8ca2f2" stroke-opacity=".48" stroke-width="5"/>
  </g>
  <g fill="#dce7ff">
    <circle cx="1050" cy="112" r="4"/><circle cx="1084" cy="185" r="7"/><circle cx="1012" cy="505" r="5"/><circle cx="917" cy="602" r="3"/>
  </g>
  <path d="M923 542c70-26 128-78 164-146" fill="none" stroke="#c6d5ff" stroke-opacity=".38" stroke-width="3" stroke-dasharray="8 13"/>
</svg>
