<svg xmlns="http://www.w3.org/2000/svg" viewBox="0 0 1200 675" role="img" aria-labelledby="title desc">
  <title id="title">心屿多轮对话与记忆插画</title><desc id="desc">原创二次元风格人物在静谧岛屿记录对话星图</desc>
  <defs>
    <linearGradient id="sky" x1="0" y1="0" x2="0" y2="1"><stop stop-color="#08172f"/><stop offset=".58" stop-color="#315074"/><stop offset="1" stop-color="#8a829f"/></linearGradient>
    <linearGradient id="sea" x1="0" y1="0" x2="1" y2="0"><stop stop-color="#102d4b"/><stop offset=".5" stop-color="#456d86"/><stop offset="1" stop-color="#283e62"/></linearGradient>
    <radialGradient id="moon"><stop stop-color="#e4edff" stop-opacity=".9"/><stop offset=".25" stop-color="#b8ccf4" stop-opacity=".42"/><stop offset="1" stop-color="#8db5e9" stop-opacity="0"/></radialGradient>
    <linearGradient id="island" x1="0" y1="0" x2="0" y2="1"><stop stop-color="#8aa79c"/><stop offset="1" stop-color="#344f59"/></linearGradient>
  </defs>
  <rect width="1200" height="675" fill="url(#sky)"/>
  <circle cx="910" cy="154" r="230" fill="url(#moon)"/>
  <circle cx="910" cy="154" r="58" fill="#e7ecf4" opacity=".82"/>
  <g fill="#dce9ff"><circle cx="104" cy="104" r="3"/><circle cx="188" cy="70" r="5"/><circle cx="306" cy="132" r="3"/><circle cx="412" cy="78" r="4"/><circle cx="544" cy="138" r="3"/><circle cx="672" cy="83" r="5"/><circle cx="1120" cy="94" r="3"/></g>
  <g fill="none" stroke="#bcd1f7" stroke-opacity=".48" stroke-width="2"><path d="m116 106 72-34 118 61 106-53 132 59 128-55"/><path d="M306 133 240 202l129 42 97-61 121 41 86-140"/></g>
  <g fill="#bcd1f7"><circle cx="240" cy="202" r="6"/><circle cx="369" cy="244" r="5"/><circle cx="466" cy="183" r="5"/><circle cx="587" cy="224" r="6"/></g>
  <path d="M0 390c181-22 319-12 474 12 177 27 361 21 726-18v291H0Z" fill="url(#sea)"/>
  <path d="M0 428c220-21 401 8 579 15 206 8 381-14 621-35M0 492c238-15 410 16 642 13 173-2 347-25 558-31M0 560c226-7 405 19 612 17 209-3 381-25 588-32" fill="none" stroke="#c3d7e9" stroke-opacity=".18" stroke-width="4"/>
  <path d="M463 457c43-83 113-126 205-127 105-2 189 47 240 145-129 44-299 44-445-18Z" fill="url(#island)"/>
  <path d="M514 425c87-36 227-37 336 17" fill="none" stroke="#b7cec2" stroke-opacity=".62" stroke-width="6" stroke-linecap="round"/>
  <g transform="translate(186 204)">
    <path d="M42 345c16-107 76-157 152-157 76 0 133 52 151 157" fill="#16283f"/>
    <ellipse cx="194" cy="114" rx="77" ry="90" fill="#edcbc7"/>
    <path d="M111 124C98 51 144 0 211 7c63 6 101 63 84 131-24-33-57-51-102-54-37-2-60 14-82 40Z" fill="#30455e"/>
    <path d="M123 106c19-31 45-49 78-51-4 21 1 39 17 55 11-26 30-43 57-49 1 29 10 55 29 77" fill="none" stroke="#8da6bd" stroke-width="15" stroke-linecap="round"/>
    <path d="M132 131c15-8 29-7 42 1M216 132c14-8 28-8 41 1" fill="none" stroke="#293b50" stroke-width="6" stroke-linecap="round"/>
    <ellipse cx="158" cy="139" rx="7" ry="10" fill="#5e86a4"/><ellipse cx="242" cy="139" rx="7" ry="10" fill="#5e86a4"/>
    <path d="M177 179c13 8 26 8 39 0" fill="none" stroke="#a96877" stroke-width="4" stroke-linecap="round"/>
    <path d="M117 213c37 34 111 34 151 0l28 53-102 55-100-54Z" fill="#526c83"/>
    <path d="m261 250 114-38 33 97-115 37Z" fill="#d9e6ed" stroke="#7894a7" stroke-width="5"/>
    <path d="m286 265 77-25M294 282l68-21M300 300l76-24" stroke="#7997aa" stroke-width="5" stroke-linecap="round"/>
  </g>
  <g fill="none" stroke="#a9c5e9" stroke-width="3" opacity=".65"><path d="M650 304c-18-30 7-60 43-57 40 3 54 43 29 70-17 18-43 22-69 13l-28 15 10-27c-1-5 4-10 15-14Z"/><path d="M777 250c-13-23 7-46 34-43 29 3 39 31 22 51-13 14-32 17-51 11l-20 11 7-21c-1-3 2-6 8-9Z"/></g>
</svg>
