<svg xmlns="http://www.w3.org/2000/svg" viewBox="0 0 1200 675" role="img" aria-labelledby="title desc">
  <title id="title">Ionic 滚动容器插画</title><desc id="desc">原创二次元风格开发者在层叠界面中寻找活动滚动路径</desc>
  <defs>
    <linearGradient id="bg" x1="0" y1="1" x2="1" y2="0"><stop stop-color="#061c31"/><stop offset=".58" stop-color="#174d68"/><stop offset="1" stop-color="#789bbb"/></linearGradient>
    <linearGradient id="glass" x1="0" y1="0" x2="0" y2="1"><stop stop-color="#dffaff" stop-opacity=".5"/><stop offset="1" stop-color="#a2dce9" stop-opacity=".08"/></linearGradient>
    <radialGradient id="light"><stop stop-color="#78e7ff" stop-opacity=".65"/><stop offset="1" stop-color="#2ac8e9" stop-opacity="0"/></radialGradient>
    <filter id="blur"><feGaussianBlur stdDeviation="18"/></filter>
  </defs>
  <rect width="1200" height="675" fill="url(#bg)"/>
  <circle cx="716" cy="330" r="330" fill="url(#light)"/>
  <g opacity=".52" fill="url(#glass)" stroke="#c9f5ff" stroke-width="3">
    <rect x="690" y="70" width="230" height="520" rx="28" transform="rotate(9 805 330)"/>
    <rect x="590" y="84" width="230" height="520" rx="28" transform="rotate(3 705 344)"/>
    <rect x="492" y="90" width="230" height="520" rx="28"/>
  </g>
  <g opacity=".45" stroke="#dcfaff" stroke-width="8" stroke-linecap="round">
    <path d="M530 148h154M530 192h118M530 250h154M530 294h92M530 352h154M530 396h130M530 454h154M530 498h104"/>
  </g>
  <path d="M696 135c-32 78-35 168-7 268 16 58 5 111-34 158" fill="none" stroke="#84efff" stroke-width="12" stroke-linecap="round"/>
  <path d="m633 535 22 28 28-23" fill="none" stroke="#84efff" stroke-width="12" stroke-linecap="round" stroke-linejoin="round"/>
  <g transform="translate(92 96)">
    <path d="M88 510c19-142 90-211 183-211 91 0 169 73 185 211" fill="#0d2a43"/>
    <ellipse cx="271" cy="184" rx="96" ry="111" fill="#edcac4"/>
    <path d="M169 171c-3-91 55-151 133-145 77 6 128 76 112 159-30-44-78-72-138-70-47 2-78 24-107 56Z" fill="#173a58"/>
    <path d="M175 163c34-40 68-60 102-58-8 22-4 45 12 68 17-34 41-56 72-64 2 35 14 66 36 92" fill="none" stroke="#6da2bc" stroke-width="19" stroke-linecap="round"/>
    <path d="M196 196c18-11 35-11 52-1M296 196c17-10 34-10 50 1" fill="none" stroke="#143149" stroke-width="7" stroke-linecap="round"/>
    <ellipse cx="225" cy="204" rx="8" ry="12" fill="#22b8d0"/><ellipse cx="326" cy="204" rx="8" ry="12" fill="#22b8d0"/>
    <path d="M250 255c15 9 31 9 46 0" fill="none" stroke="#ad6a79" stroke-width="5" stroke-linecap="round"/>
    <path d="M181 320c44 39 132 39 177-2l34 70-121 64-121-67Z" fill="#31718e"/>
    <path d="M92 504c103-36 221-38 355-5" fill="none" stroke="#6fcde0" stroke-opacity=".4" stroke-width="5"/>
  </g>
  <g fill="#b8f4ff" opacity=".8"><circle cx="988" cy="123" r="5"/><circle cx="1034" cy="204" r="3"/><circle cx="954" cy="510" r="6"/><circle cx="1093" cy="576" r="4"/></g>
</svg>
