<svg xmlns="http://www.w3.org/2000/svg" viewBox="0 0 1200 675" role="img" aria-labelledby="title desc">
  <title id="title">虚拟列表遮挡插画</title><desc id="desc">原创二次元风格开发者与错位的全息卡片层</desc>
  <defs>
    <linearGradient id="bg" x1="0" y1="0" x2="1" y2="1"><stop stop-color="#140d32"/><stop offset=".52" stop-color="#35376e"/><stop offset="1" stop-color="#8b557e"/></linearGradient>
    <linearGradient id="card" x1="0" y1="0" x2="1" y2="1"><stop stop-color="#d9dcff" stop-opacity=".48"/><stop offset="1" stop-color="#f4b7df" stop-opacity=".1"/></linearGradient>
    <radialGradient id="halo"><stop stop-color="#d9a5ff" stop-opacity=".55"/><stop offset="1" stop-color="#8b6ee8" stop-opacity="0"/></radialGradient>
    <pattern id="dots" width="28" height="28" patternUnits="userSpaceOnUse"><circle cx="2" cy="2" r="1.5" fill="#e6d9ff" fill-opacity=".14"/></pattern>
  </defs>
  <rect width="1200" height="675" fill="url(#bg)"/><rect width="1200" height="675" fill="url(#dots)"/>
  <circle cx="790" cy="298" r="330" fill="url(#halo)"/>
  <g stroke="#e7dfff" stroke-width="3">
    <rect x="560" y="82" width="430" height="128" rx="24" fill="url(#card)"/>
    <rect x="525" y="242" width="430" height="128" rx="24" fill="url(#card)"/>
    <rect x="592" y="382" width="430" height="128" rx="24" fill="url(#card)"/>
  </g>
  <g fill="none" stroke-linecap="round">
    <path d="M534 225h425" stroke="#ff9bd3" stroke-width="5" stroke-dasharray="12 10"/>
    <path d="M565 218v175M952 218v175" stroke="#c9b8ff" stroke-width="3" stroke-dasharray="8 8"/>
    <path d="m552 356 13 35 15-35M938 356l14 35 13-35" stroke="#c9b8ff" stroke-width="6"/>
  </g>
  <g opacity=".6" stroke="#f2ebff" stroke-width="8" stroke-linecap="round">
    <path d="M616 126h213M616 162h289M580 285h186M580 323h302M646 425h245M646 463h311"/>
  </g>
  <g transform="translate(92 80)">
    <path d="M78 526c16-157 84-229 182-229 98 0 171 76 188 229" fill="#171737"/>
    <ellipse cx="260" cy="182" rx="96" ry="111" fill="#efc9ca"/>
    <path d="M160 187c-17-94 43-163 126-160 85 3 138 80 117 170-26-45-67-70-123-76-51-6-86 18-120 66Z" fill="#352d63"/>
    <path d="M171 163c23-43 56-68 99-72-7 27 0 51 19 73 13-35 37-58 72-68 0 40 12 76 36 106" fill="none" stroke="#a49ee5" stroke-width="19" stroke-linecap="round"/>
    <path d="M185 195c19-10 36-9 52 2M286 197c18-11 36-10 52 1" fill="none" stroke="#312851" stroke-width="7" stroke-linecap="round"/>
    <ellipse cx="216" cy="206" rx="8" ry="12" fill="#9a68df"/><ellipse cx="319" cy="207" rx="8" ry="12" fill="#9a68df"/>
    <path d="M239 257c15 10 31 10 47 0" fill="none" stroke="#b76b86" stroke-width="5" stroke-linecap="round"/>
    <path d="M169 317c47 42 137 42 183 0l37 72-129 69-125-68Z" fill="#6b4d90"/>
    <path d="M90 518c110-40 226-42 347-6" fill="none" stroke="#c39de8" stroke-opacity=".42" stroke-width="5"/>
  </g>
  <g fill="#f1c9ff"><circle cx="1090" cy="136" r="5"/><circle cx="1048" cy="278" r="3"/><circle cx="1082" cy="548" r="7"/></g>
</svg>
